<svg xmlns="http://www.w3.org/2000/svg" width="32" height="32" fill="none" viewBox="0 0 32 32">
    <mask id="a" width="32" height="32" x="0" y="0" maskUnits="userSpaceOnUse" style="mask-type:alpha">
        <path fill="#000" fill-rule="evenodd" d="M16 32c12.8 0 16-3.2 16-16S28.8 0 16 0 0 3.2 0 16s3.2 16 16 16Z" clip-rule="evenodd" />
    </mask>
    <g mask="url(#a)">
        <path fill="url(#b)" d="M0 0h32v32H0z" />
        <path stroke="url(#c)" stroke-opacity=".5" stroke-width="1.75" d="M31.125 16c0 6.406-.822 10.06-2.944 12.181-2.122 2.122-5.775 2.944-12.181 2.944-6.406 0-10.06-.822-12.181-2.944C1.697 26.06.875 22.406.875 16c0-6.406.822-10.06 2.944-12.181C5.94 1.697 9.594.875 16 .875c6.406 0 10.06.822 12.181 2.944C30.303 5.94 31.125 9.594 31.125 16Z" />
        <g filter="url(#d)">
            <path fill="url(#e)" fill-rule="evenodd" d="M16 8.018a2.397 2.397 0 0 0-.194.078 9.08 9.08 0 0 0-.888.46 35.07 35.07 0 0 0-2.716 1.761 50.471 50.471 0 0 0-2.435 1.814c-.505.396-1.084.85-2.06 1.576a.999.999 0 1 1-1.414-1.414c2.208-1.793 2.606-2.092 4.755-3.61a37.817 37.817 0 0 1 2.878-1.864c.401-.229.78-.425 1.077-.555.262-.115.64-.264.997-.264.358 0 .735.149.997.264.297.13.676.326 1.077.555a37.836 37.836 0 0 1 2.878 1.864c2.15 1.518 2.548 1.817 4.755 3.61a.999.999 0 1 1-1.414 1.414 92.156 92.156 0 0 1-2.06-1.576 50.541 50.541 0 0 0-2.435-1.814 35.088 35.088 0 0 0-2.716-1.761 9.091 9.091 0 0 0-.888-.46A2.397 2.397 0 0 0 16 8.018ZM7 24a1 1 0 0 1 1-1h16a1 1 0 0 1 0 2H8a1 1 0 0 1-1-1Zm8-3a1 1 0 0 0 2 0v-7a1 1 0 0 0-2 0v7Zm6 1a1 1 0 0 1-1-1v-7a1 1 0 0 1 2 0v7a1 1 0 0 1-1 1Zm-11-1a1 1 0 0 0 2 0v-7a1 1 0 0 0-2 0v7Z" clip-rule="evenodd" />
        </g>
    </g>
    <defs>
        <radialGradient id="b" cx="0" cy="0" r="1" gradientTransform="matrix(0 14 -14 0 16 0)" gradientUnits="userSpaceOnUse">
            <stop stop-color="#3C4858" />
            <stop offset="1" stop-color="#1F2D3D" />
        </radialGradient>
        <radialGradient id="c" cx="0" cy="0" r="1" gradientTransform="translate(16 16) scale(15.1917)" gradientUnits="userSpaceOnUse">
            <stop offset=".52" stop-color="#ED3952" />
            <stop offset=".579" stop-color="#FE5B72" />
            <stop offset=".741" stop-color="#FF5C73" />
            <stop offset=".929" stop-color="#EC3750" />
        </radialGradient>
        <radialGradient id="e" cx="0" cy="0" r="1" gradientTransform="matrix(0 10 -12.1799 0 16 6)" gradientUnits="userSpaceOnUse">
            <stop stop-color="#FF5C73" />
            <stop offset="1" stop-color="#EC3750" />
        </radialGradient>
        <filter id="d" width="22.5" height="21.75" x="4.75" y="5.5" color-interpolation-filters="sRGB" filterUnits="userSpaceOnUse">
            <feFlood flood-opacity="0" result="BackgroundImageFix" />
            <feColorMatrix in="SourceAlpha" result="hardAlpha" values="0 0 0 0 0 0 0 0 0 0 0 0 0 0 0 0 0 0 127 0" />
            <feOffset dy="1" />
            <feGaussianBlur stdDeviation=".625" />
            <feColorMatrix values="0 0 0 0 0 0 0 0 0 0 0 0 0 0 0 0 0 0 0.25 0" />
            <feBlend in2="BackgroundImageFix" result="effect1_dropShadow_180:2" />
            <feBlend in="SourceGraphic" in2="effect1_dropShadow_180:2" result="shape" />
            <feColorMatrix in="SourceAlpha" result="hardAlpha" values="0 0 0 0 0 0 0 0 0 0 0 0 0 0 0 0 0 0 127 0" />
            <feOffset dy="-.5" />
            <feGaussianBlur stdDeviation=".25" />
            <feComposite in2="hardAlpha" k2="-1" k3="1" operator="arithmetic" />
            <feColorMatrix values="0 0 0 0 0 0 0 0 0 0 0 0 0 0 0 0 0 0 0.15 0" />
            <feBlend in2="shape" result="effect2_innerShadow_180:2" />
            <feColorMatrix in="SourceAlpha" result="hardAlpha" values="0 0 0 0 0 0 0 0 0 0 0 0 0 0 0 0 0 0 127 0" />
            <feOffset dy=".5" />
            <feGaussianBlur stdDeviation=".5" />
            <feComposite in2="hardAlpha" k2="-1" k3="1" operator="arithmetic" />
            <feColorMatrix values="0 0 0 0 1 0 0 0 0 1 0 0 0 0 1 0 0 0 0.2 0" />
            <feBlend in2="effect2_innerShadow_180:2" result="effect3_innerShadow_180:2" />
        </filter>
    </defs>
</svg>