<svg xmlns="http://www.w3.org/2000/svg" xmlns:xlink="http://www.w3.org/1999/xlink" width="1080" zoomAndPan="magnify" viewBox="0 0 810 809.999993" height="1080" preserveAspectRatio="xMidYMid meet" version="1.0"><path fill="#ffac33" d="M 123.097656 118.257812 L 254.449219 118.257812 C 278.617188 118.257812 295.539062 115.980469 295.539062 140.160156 L 295.539062 96.355469 C 295.539062 72.175781 278.617188 52.554688 254.449219 52.554688 L 79.3125 52.554688 C 35.53125 52.554688 0.875 99.09375 13.636719 162.0625 C 13.636719 162.0625 52.847656 367.390625 55.605469 380.160156 C 62.894531 413.929688 102.105469 446.785156 144.070312 446.785156 L 296.394531 446.785156 C 320.585938 446.785156 295.539062 405.257812 295.539062 381.078125 L 295.539062 337.273438 C 295.539062 361.453125 278.617188 381.078125 254.449219 381.078125 L 166.882812 381.078125 C 142.714844 381.078125 126.753906 358.257812 123.097656 337.273438 C 119.441406 316.292969 88.421875 176.671875 88.421875 176.671875 C 81.132812 134.683594 98.90625 118.257812 123.097656 118.257812 Z M 688.171875 118.257812 L 556.820312 118.257812 C 532.652344 118.257812 492.566406 115.980469 492.566406 140.160156 L 492.566406 96.355469 C 492.566406 72.175781 532.652344 52.554688 556.820312 52.554688 L 731.957031 52.554688 C 775.738281 52.554688 810.414062 99.09375 797.632812 162.0625 C 797.632812 162.0625 761.882812 368.355469 758.859375 381.078125 C 751.109375 413.929688 714.15625 446.785156 671.292969 446.785156 L 514.851562 446.785156 C 490.683594 446.785156 492.566406 405.257812 492.566406 381.078125 L 492.566406 337.273438 C 492.566406 361.453125 532.652344 381.078125 556.820312 381.078125 L 644.386719 381.078125 C 668.554688 381.078125 684.539062 358.257812 688.171875 337.273438 C 691.804688 316.292969 722.847656 176.671875 722.847656 176.671875 C 730.117188 134.683594 712.363281 118.257812 688.171875 118.257812 Z M 466.996094 490.585938 C 466.996094 338.195312 407.691406 490.585938 407.691406 490.585938 C 407.691406 490.585938 342.015625 338.195312 342.015625 490.585938 C 342.015625 642.980469 269.972656 709.605469 269.972656 709.605469 L 539.066406 709.605469 C 539.042969 709.605469 466.996094 642.980469 466.996094 490.585938 Z M 466.996094 490.585938 " fill-opacity="1" fill-rule="nonzero"/><path fill="#ffcc4d" d="M 648.503906 152.796875 C 648.503906 301.179688 500.296875 551.234375 407.691406 551.234375 C 315.066406 551.234375 166.882812 301.179688 166.882812 152.796875 C 166.882812 39.019531 188.773438 14.402344 232.558594 14.402344 C 262.636719 14.402344 364.457031 13.808594 407.691406 13.808594 L 560.9375 13.789062 C 624.792969 13.765625 648.503906 28.769531 648.503906 152.796875 Z M 648.503906 152.796875 " fill-opacity="1" fill-rule="nonzero"/><path fill="#c1694f" d="M 602.027344 731.503906 C 602.027344 755.683594 606.996094 775.308594 582.828125 775.308594 L 232.558594 775.308594 C 208.367188 775.308594 207.972656 755.683594 207.972656 731.503906 L 207.972656 709.605469 C 207.972656 685.425781 233.457031 665.800781 256.265625 665.800781 L 560.9375 665.800781 C 583.746094 665.800781 602.027344 685.425781 602.027344 709.605469 Z M 602.027344 731.503906 " fill-opacity="1" fill-rule="nonzero"/><path fill="#c1694f" d="M 645.8125 767.09375 C 645.8125 783.742188 649.421875 797.210938 618.402344 797.210938 L 196.984375 797.210938 C 168.699219 797.210938 164.1875 783.742188 164.1875 767.09375 L 164.1875 761.621094 C 164.1875 744.976562 180.34375 731.503906 196.984375 731.503906 L 618.402344 731.503906 C 635.019531 731.503906 645.8125 744.976562 645.8125 761.621094 Z M 645.8125 767.09375 " fill-opacity="1" fill-rule="nonzero"/></svg>